# Blender v2.92.0 OBJ File: '3d-tick-tack-toe.blend'
# www.blender.org
mtllib diamond1.mtl
o 1.003_Cube.004
v 10.000000 7.390796 10.000000
v 10.000000 10.000000 12.609204
v 7.390796 10.000000 10.000000
v 10.000000 10.000000 12.609204
v 10.000000 12.609204 10.000000
v 7.390796 10.000000 10.000000
v 10.000000 7.390796 10.000000
v 7.390796 10.000000 10.000000
v 10.000000 10.000000 7.390796
v 10.000000 12.609204 10.000000
v 10.000000 10.000000 7.390796
v 7.390796 10.000000 10.000000
v 10.000000 7.390796 10.000000
v 12.609204 10.000000 10.000000
v 10.000000 10.000000 12.609204
v 10.000000 12.609204 10.000000
v 10.000000 10.000000 12.609204
v 12.609204 10.000000 10.000000
v 10.000000 7.390796 10.000000
v 10.000000 10.000000 7.390796
v 12.609204 10.000000 10.000000
v 10.000000 12.609204 10.000000
v 12.609204 10.000000 10.000000
v 10.000000 10.000000 7.390796
vt 0.500000 0.875000
vt 0.500000 0.875000
vt 0.500000 0.875000
vt 0.500000 0.875000
vt 0.500000 0.625000
vt 0.500000 0.625000
vt 0.500000 0.625000
vt 0.500000 0.625000
vt 0.750000 0.625000
vt 0.750000 0.625000
vt 0.750000 0.625000
vt 0.750000 0.625000
vt 0.500000 0.125000
vt 0.500000 0.125000
vt 0.500000 0.125000
vt 0.500000 0.125000
vt 0.500000 0.375000
vt 0.500000 0.375000
vt 0.500000 0.375000
vt 0.500000 0.375000
vt 0.250000 0.625000
vt 0.250000 0.750000
vt 0.125000 0.625000
vt 0.500000 0.000000
vt 0.625000 0.125000
vt 0.625000 0.125000
vt 0.250000 0.625000
vt 0.125000 0.625000
vt 0.250000 0.500000
vt 0.625000 0.125000
vt 0.500000 0.250000
vt 0.500000 0.250000
vt 0.250000 0.625000
vt 0.375000 0.625000
vt 0.250000 0.750000
vt 0.625000 0.875000
vt 0.625000 0.875000
vt 0.500000 0.750000
vt 0.250000 0.625000
vt 0.250000 0.500000
vt 0.375000 0.625000
vt 0.625000 0.375000
vt 0.500000 0.500000
vt 0.500000 0.500000
vt 0.500000 0.000000
vt 0.625000 0.375000
vt 0.625000 0.875000
vn 0.0000 0.0000 1.0000
vn -0.5774 -0.5774 0.5774
vn -0.5774 0.5774 0.5774
vn -0.5774 -0.5774 -0.5774
vn -0.5774 0.5774 -0.5774
vn 0.5774 -0.5774 0.5774
vn 0.5774 0.5774 0.5774
vn 0.5774 -0.5774 -0.5774
vn 0.5774 0.5774 -0.5774
usemtl Material.005
s off
f 15/1/1 17/2/1 4/3/1 2/4/1
f 21/5/1 23/6/1 18/7/1 14/8/1
f 22/9/1 10/10/1 5/11/1 16/12/1
f 3/13/1 6/14/1 12/15/1 8/16/1
f 9/17/1 11/18/1 24/19/1 20/20/1
f 1/21/2 2/22/2 3/23/2
f 4/24/3 5/25/3 6/26/3
f 7/27/4 8/28/4 9/29/4
f 10/30/5 11/31/5 12/32/5
f 13/33/6 14/34/6 15/35/6
f 16/36/7 17/37/7 18/38/7
f 19/39/8 20/40/8 21/41/8
f 22/42/9 23/43/9 24/44/9
f 7/27/1 1/21/1 3/23/1 8/28/1
f 2/45/1 4/24/1 6/14/1 3/13/1
f 5/25/1 10/30/1 12/15/1 6/14/1
f 11/18/1 9/17/1 8/16/1 12/15/1
f 19/39/1 7/27/1 9/29/1 20/40/1
f 10/46/1 22/42/1 24/19/1 11/18/1
f 23/6/1 21/5/1 20/20/1 24/19/1
f 13/33/1 19/39/1 21/5/1 14/8/1
f 22/9/1 16/12/1 18/7/1 23/6/1
f 17/2/1 15/1/1 14/8/1 18/7/1
f 1/21/1 13/33/1 15/35/1 2/22/1
f 16/36/1 5/47/1 4/3/1 17/2/1
f 7/27/1 19/39/1 13/33/1 1/21/1
