# Blender v2.92.0 OBJ File: '3d-tick-tack-toe.blend'
# www.blender.org
mtllib number11.mtl
o Text.003_Text.016
v 2.853539 7.496740 -3.109833
v 2.853539 12.199415 -3.109833
v 2.853539 12.199415 -3.785584
v 2.853539 7.496740 -3.785584
v 2.853539 7.496740 0.337875
v 2.853539 12.199415 0.337875
v 2.853539 12.199415 -0.337875
v 2.853539 7.496740 -0.337875
v 0.619424 7.496740 -3.109833
v 0.619424 12.199415 -3.109833
v 0.619424 12.199415 -3.785584
v 0.619424 7.496740 -3.785584
v 0.619424 7.496740 0.337876
v 0.619424 12.199415 0.337876
v 0.619424 12.199415 -0.337875
v 0.619424 7.496740 -0.337875
v 0.619424 7.496740 0.337876
v 2.853539 7.496740 0.337875
v 0.619424 12.199415 0.337876
v 2.853539 12.199415 0.337875
v 0.619424 12.199415 -0.337875
v 2.853539 12.199415 -0.337875
v 0.619424 7.496740 -0.337875
v 2.853539 7.496740 -0.337875
v 0.619424 7.496740 -3.109833
v 2.853539 7.496740 -3.109833
v 0.619424 12.199415 -3.109833
v 2.853539 12.199415 -3.109833
v 0.619424 12.199415 -3.785584
v 2.853539 12.199415 -3.785584
v 0.619424 7.496740 -3.785584
v 2.853539 7.496740 -3.785584
vt 0.000000 0.000000
vt 0.666667 0.000000
vt 0.333333 0.000000
vt 1.000000 0.000000
vt 0.000000 0.000000
vt 0.666667 0.000000
vt 0.333333 0.000000
vt 1.000000 0.000000
vt 0.666667 0.000000
vt 0.000000 0.000000
vt 0.333333 0.000000
vt 1.000000 0.000000
vt 0.666667 0.000000
vt 0.000000 0.000000
vt 0.333333 0.000000
vt 1.000000 0.000000
vt 0.000000 1.000000
vt 0.250000 1.000000
vt 0.250000 0.000000
vt 0.000000 0.000000
vt 0.500000 1.000000
vt 0.500000 0.000000
vt 0.750000 1.000000
vt 0.750000 0.000000
vt 1.000000 1.000000
vt 1.000000 0.000000
vt 0.000000 1.000000
vt 0.250000 1.000000
vt 0.250000 0.000000
vt 0.000000 0.000000
vt 0.500000 1.000000
vt 0.500000 0.000000
vt 0.750000 1.000000
vt 0.750000 0.000000
vt 1.000000 1.000000
vt 1.000000 0.000000
vn 1.0000 0.0000 0.0000
vn -1.0000 -0.0000 0.0000
vn 0.0000 -0.7071 0.7071
vn 0.0000 0.7071 0.7071
vn 0.0000 0.7071 -0.7071
vn 0.0000 -0.7071 -0.7071
usemtl Material
s off
f 1/1/1 3/2/1 2/3/1
f 1/1/1 4/4/1 3/2/1
f 5/5/1 7/6/1 6/7/1
f 5/5/1 8/8/1 7/6/1
f 11/9/2 9/10/2 10/11/2
f 12/12/2 9/10/2 11/9/2
f 15/13/2 13/14/2 14/15/2
f 16/16/2 13/14/2 15/13/2
s 1
f 18/17/3 20/18/4 19/19/4 17/20/3
f 20/18/4 22/21/5 21/22/5 19/19/4
f 22/21/5 24/23/6 23/24/6 21/22/5
f 24/23/6 18/25/3 17/26/3 23/24/6
f 26/27/3 28/28/4 27/29/4 25/30/3
f 28/28/4 30/31/5 29/32/5 27/29/4
f 30/31/5 32/33/6 31/34/6 29/32/5
f 32/33/6 26/35/3 25/36/3 31/34/6
