# Blender v2.92.0 OBJ File: '3d-tick-tack-toe.blend'
# www.blender.org
mtllib number17.mtl
o Text.015_Text.022
v -0.619424 -11.999448 -2.365128
v -0.619425 -8.138014 -4.088983
v -0.619424 -8.138014 -2.054834
v -0.619424 -7.496740 -2.054834
v -0.619425 -7.496740 -5.095713
v -0.619424 -12.261474 -2.965029
v -0.619424 -12.199415 0.337875
v -0.619424 -7.496740 0.337875
v -0.619424 -7.496740 -0.337875
v -0.619424 -12.199415 -0.337875
v -2.853539 -11.999448 -2.365128
v -2.853540 -8.138014 -4.088983
v -2.853539 -8.138014 -2.054834
v -2.853539 -7.496740 -2.054834
v -2.853540 -7.496740 -5.095713
v -2.853539 -12.261474 -2.965029
v -2.853539 -12.199415 0.337876
v -2.853539 -7.496740 0.337876
v -2.853539 -7.496740 -0.337875
v -2.853539 -12.199415 -0.337875
v -2.853539 -12.199415 0.337876
v -0.619424 -12.199415 0.337875
v -2.853539 -7.496740 0.337876
v -0.619424 -7.496740 0.337875
v -2.853539 -7.496740 -0.337875
v -0.619424 -7.496740 -0.337875
v -2.853539 -12.199415 -0.337875
v -0.619424 -12.199415 -0.337875
v -2.853539 -11.999448 -2.365128
v -0.619424 -11.999448 -2.365128
v -2.853540 -8.138014 -4.088983
v -0.619425 -8.138014 -4.088983
v -2.853539 -8.138014 -2.054834
v -0.619424 -8.138014 -2.054834
v -2.853539 -7.496740 -2.054834
v -0.619424 -7.496740 -2.054834
v -2.853540 -7.496740 -5.095713
v -0.619425 -7.496740 -5.095713
v -2.853539 -12.261474 -2.965029
v -0.619424 -12.261474 -2.965029
vt 0.400000 0.000000
vt 0.800000 0.000000
vt 0.600000 0.000000
vt 0.200000 0.000000
vt 1.000000 0.000000
vt 0.000000 0.000000
vt 0.000000 0.000000
vt 0.666667 0.000000
vt 0.333333 0.000000
vt 1.000000 0.000000
vt 0.800000 0.000000
vt 0.400000 0.000000
vt 0.600000 0.000000
vt 0.200000 0.000000
vt 1.000000 0.000000
vt 0.000000 0.000000
vt 0.666667 0.000000
vt 0.000000 0.000000
vt 0.333333 0.000000
vt 1.000000 0.000000
vt 0.000000 1.000000
vt 0.250000 1.000000
vt 0.250000 0.000000
vt 0.000000 0.000000
vt 0.500000 1.000000
vt 0.500000 0.000000
vt 0.750000 1.000000
vt 0.750000 0.000000
vt 1.000000 1.000000
vt 1.000000 0.000000
vt 0.000000 1.000000
vt 0.166667 1.000000
vt 0.166667 0.000000
vt 0.000000 0.000000
vt 0.333333 1.000000
vt 0.333333 0.000000
vt 0.500000 1.000000
vt 0.500000 0.000000
vt 0.666667 1.000000
vt 0.666667 0.000000
vt 0.833333 1.000000
vt 0.833333 0.000000
vt 1.000000 1.000000
vt 1.000000 0.000000
vn 1.0000 0.0000 -0.0000
vn -1.0000 0.0000 0.0000
vn 0.0000 -0.7071 0.7071
vn 0.0000 0.7071 0.7071
vn 0.0000 0.7071 -0.7071
vn 0.0000 -0.7071 -0.7071
vn 0.0000 -0.3612 0.9325
vn 0.0000 -0.5442 0.8389
vn 0.0000 0.5439 -0.8391
vn 0.0000 -0.9326 -0.3609
usemtl Material
s off
f 3/1/1 5/2/1 4/3/1
f 3/1/1 2/4/1 5/2/1
f 2/4/1 6/5/1 5/2/1
f 1/6/1 6/5/1 2/4/1
f 7/7/1 9/8/1 8/9/1
f 7/7/1 10/10/1 9/8/1
f 15/11/2 13/12/2 14/13/2
f 12/14/2 13/12/2 15/11/2
f 16/15/2 12/14/2 15/11/2
f 16/15/2 11/16/2 12/14/2
f 19/17/2 17/18/2 18/19/2
f 20/20/2 17/18/2 19/17/2
s 1
f 22/21/3 24/22/4 23/23/4 21/24/3
f 24/22/4 26/25/5 25/26/5 23/23/4
f 26/25/5 28/27/6 27/28/6 25/26/5
f 28/27/6 22/29/3 21/30/3 27/28/6
f 30/31/7 32/32/8 31/33/8 29/34/7
f 32/32/8 34/35/3 33/36/3 31/33/8
f 34/35/3 36/37/4 35/38/4 33/36/3
f 36/37/4 38/39/9 37/40/9 35/38/4
f 38/39/9 40/41/10 39/42/10 37/40/9
f 40/41/10 30/43/7 29/44/7 39/42/10
